<svg xmlns="http://www.w3.org/2000/svg" xmlns:xlink="http://www.w3.org/1999/xlink" viewBox="0 0 1548.61 1192"><defs><style>.cls-1{isolation:isolate;}.cls-2{fill:#864aff;}.cls-3{fill:#f7931e;}.cls-4{fill:#fc0;}.cls-15,.cls-5,.cls-6,.cls-7,.cls-8,.cls-9{mix-blend-mode:overlay;}.cls-5{fill:url(#linear-gradient);}.cls-6{fill:url(#linear-gradient-2);}.cls-7{fill:url(#linear-gradient-3);}.cls-8{fill:url(#linear-gradient-4);}.cls-10{fill:url(#linear-gradient-5);}.cls-11{fill:url(#linear-gradient-6);}.cls-12{fill:url(#linear-gradient-7);}.cls-13{fill:url(#linear-gradient-8);}.cls-14{fill:url(#linear-gradient-9);}.cls-15{fill:url(#linear-gradient-10);}</style><linearGradient id="linear-gradient" x1="1011.42" y1="1890.75" x2="1506.13" y2="1890.75" gradientTransform="translate(-512.54 212.66) rotate(-23.1)" gradientUnits="userSpaceOnUse"><stop offset="0" stop-color="#4571d1"/><stop offset="1" stop-color="#6ce1fe"/></linearGradient><linearGradient id="linear-gradient-2" x1="1022.72" y1="2168.9" x2="1639.34" y2="2168.9" xlink:href="#linear-gradient"/><linearGradient id="linear-gradient-3" x1="1011.54" y1="1846.77" x2="1628.05" y2="1846.77" xlink:href="#linear-gradient"/><linearGradient id="linear-gradient-4" x1="1144.1" y1="2123.23" x2="1639.46" y2="2123.23" xlink:href="#linear-gradient"/><linearGradient id="linear-gradient-5" x1="767.62" y1="231.16" x2="843.21" y2="231.16" gradientTransform="matrix(1, 0, 0, 1, 0, 0)" xlink:href="#linear-gradient"/><linearGradient id="linear-gradient-6" x1="874.07" y1="171.32" x2="923.2" y2="171.32" gradientTransform="matrix(1, 0, 0, 1, 0, 0)" xlink:href="#linear-gradient"/><linearGradient id="linear-gradient-7" x1="639.76" y1="183.29" x2="702.75" y2="183.29" gradientTransform="matrix(1, 0, 0, 1, 0, 0)" xlink:href="#linear-gradient"/><linearGradient id="linear-gradient-8" x1="741.8" y1="108.97" x2="818.64" y2="108.97" gradientTransform="matrix(1, 0, 0, 1, 0, 0)" xlink:href="#linear-gradient"/><linearGradient id="linear-gradient-9" x1="702.75" y1="18.27" x2="739.28" y2="18.27" gradientTransform="matrix(1, 0, 0, 1, 0, 0)" xlink:href="#linear-gradient"/><linearGradient id="linear-gradient-10" x1="814.37" y1="2007.85" x2="1836.52" y2="2007.85" xlink:href="#linear-gradient"/></defs><g class="cls-1"><g id="Layer_1" data-name="Layer 1"><path class="cls-2" d="M1637.48,1414.65c-.64.46-1.3.87-2,1.28a187.69,187.69,0,0,0-214.84-49c-92.34,39.38-136.87,144.1-102.6,237.27.34.94.75,1.92,1.09,2.87-35.93,22.66-71.7,46.15-106.72,70.79-1.28-2.54-2.5-5.11-3.69-7.75l-.21-.49c-1-2.32-2.08-4.58-3.08-6.92s-1.92-4.65-2.86-7l-.21-.49c-48.91-125.7,10.45-268.32,135.39-321.6a250.29,250.29,0,0,1,299.69,81Z" transform="translate(-725.69 -904)"/><path class="cls-2" d="M1786.24,1423.87c62.66,157.78-11.71,337.61-168.75,404.58-132.87,56.67-283.06,14.68-368.81-93.19q11.82-10,24-18.87c25.52-18.41,51.26-36.33,77-53.72a250.7,250.7,0,0,0,301.14,82.88C1775.75,1692.27,1835.15,1549.57,1786.24,1423.87Z" transform="translate(-725.69 -904)"/><path class="cls-3" d="M1738.34,1344.43c-31.92,24.23-65.67,47.49-100.86,70.22a250.29,250.29,0,0,0-299.69-81c-124.94,53.28-184.3,195.9-135.39,321.6-62.64-157.72,11.68-337.52,168.71-404.5,132.72-56.6,282.68-14.83,368.53,92.67C1739.2,1343.74,1738.78,1344.11,1738.34,1344.43Z" transform="translate(-725.69 -904)"/><path class="cls-3" d="M1783.17,1416.37c1,2.34,1.92,4.65,2.86,7l.21.49c48.91,125.7-10.49,268.4-135.42,321.68a250.7,250.7,0,0,1-301.14-82.88c.61-.39,1.24-.86,1.85-1.24a187.72,187.72,0,0,0,216.4,50.8c93.91-40.06,138.32-147.49,100.86-241.8-.57-1.5-1.2-3-1.85-4.49l-.21-.49c13.66-8.39,27.21-16.88,40.49-25.24,9.29-5.83,18.52-11.63,27.88-17.42,8-5,16-10,24-14.93,5.2-3.18,10.38-6.42,15.61-9.68,1.77,3.56,3.49,7.13,5.18,10.78l.21.49C1781.14,1411.77,1782.17,1414,1783.17,1416.37Z" transform="translate(-725.69 -904)"/><rect class="cls-2" x="767.62" y="193.37" width="75.58" height="75.58"/><rect class="cls-2" x="874.07" y="146.76" width="49.13" height="49.13"/><rect class="cls-2" x="639.76" y="151.8" width="62.99" height="62.99"/><rect class="cls-2" x="741.8" y="70.54" width="76.84" height="76.84"/><rect class="cls-2" x="702.75" width="36.53" height="36.53"/><path class="cls-4" d="M1914.86,1259.37a98.73,98.73,0,0,1-12.76,20.3c-2.84,3.59-5.76,7.15-8.8,10.57-21.9,25.1-48.23,45.84-75.22,65.2-15.85,11.39-32.31,22-48.87,32.29-13.46,8.38-27,16.59-40.37,25.06-22.44,13.88-44.66,28.12-67.17,41.83a.06.06,0,0,1,0,.08c-8.91,5.48-17.91,10.92-27,16.2-98.43,57.8-196,117.3-290.54,181.28a10.86,10.86,0,0,0-1.08.78q-39,26.3-77.23,53.84c-8.37,6-16.46,12.36-24.35,19.06a429.17,429.17,0,0,0-38.76,37.89c-11.84,13.09-25.5,29.33-28.11,47.48-6.53,46.2,75.43,46.42,102.88,47-6.51,1.49-245.16,54.26-203.66-38.42a82.68,82.68,0,0,1,7.71-13.45c16.63-24.33,38.66-44.46,61.75-62.54q36.51-28.59,74.62-55.3c34.63-24.35,70.07-47.7,106-70.27l.06,0c51.06-32.26,103-63,154.84-93.37,54.82-32.06,110.81-65.13,164.35-99.74a12,12,0,0,1,1.16-.75c35.12-22.76,69.24-46.19,101.25-70.51.44-.32.91-.71,1.36-1a277.1,277.1,0,0,0,49.3-49.52c8.89-11.57,19-26.3,18.24-41.67-2-40.83-76.44-40.2-103.2-40.68C1717.71,1219.46,1956.34,1166.63,1914.86,1259.37Z" transform="translate(-725.69 -904)"/><path class="cls-5" d="M1637.48,1414.65c-.64.46-1.3.87-2,1.28a187.69,187.69,0,0,0-214.84-49c-92.34,39.38-136.87,144.1-102.6,237.27.34.94.75,1.92,1.09,2.87-35.93,22.66-71.7,46.15-106.72,70.79-1.28-2.54-2.5-5.11-3.69-7.75l-.21-.49c-1-2.32-2.08-4.58-3.08-6.92s-1.92-4.65-2.86-7l-.21-.49c-48.91-125.7,10.45-268.32,135.39-321.6a250.29,250.29,0,0,1,299.69,81Z" transform="translate(-725.69 -904)"/><path class="cls-6" d="M1786.24,1423.87c62.66,157.78-11.71,337.61-168.75,404.58-132.87,56.67-283.06,14.68-368.81-93.19q11.82-10,24-18.87c25.52-18.41,51.26-36.33,77-53.72a250.7,250.7,0,0,0,301.14,82.88C1775.75,1692.27,1835.15,1549.57,1786.24,1423.87Z" transform="translate(-725.69 -904)"/><path class="cls-7" d="M1738.34,1344.43c-31.92,24.23-65.67,47.49-100.86,70.22a250.29,250.29,0,0,0-299.69-81c-124.94,53.28-184.3,195.9-135.39,321.6-62.64-157.72,11.68-337.52,168.71-404.5,132.72-56.6,282.68-14.83,368.53,92.67C1739.2,1343.74,1738.78,1344.11,1738.34,1344.43Z" transform="translate(-725.69 -904)"/><path class="cls-8" d="M1783.17,1416.37c1,2.34,1.92,4.65,2.86,7l.21.49c48.91,125.7-10.49,268.4-135.42,321.68a250.7,250.7,0,0,1-301.14-82.88c.61-.39,1.24-.86,1.85-1.24a187.72,187.72,0,0,0,216.4,50.8c93.91-40.06,138.32-147.49,100.86-241.8-.57-1.5-1.2-3-1.85-4.49l-.21-.49c13.66-8.39,27.21-16.88,40.49-25.24,9.29-5.83,18.52-11.63,27.88-17.42,8-5,16-10,24-14.93,5.2-3.18,10.38-6.42,15.61-9.68,1.77,3.56,3.49,7.13,5.18,10.78l.21.49C1781.14,1411.77,1782.17,1414,1783.17,1416.37Z" transform="translate(-725.69 -904)"/><g class="cls-9"><rect class="cls-10" x="767.62" y="193.37" width="75.58" height="75.58"/><rect class="cls-11" x="874.07" y="146.76" width="49.13" height="49.13"/><rect class="cls-12" x="639.76" y="151.8" width="62.99" height="62.99"/><rect class="cls-13" x="741.8" y="70.54" width="76.84" height="76.84"/><rect class="cls-14" x="702.75" width="36.53" height="36.53"/></g><path class="cls-15" d="M1914.86,1259.37a98.73,98.73,0,0,1-12.76,20.3c-2.84,3.59-5.76,7.15-8.8,10.57-21.9,25.1-48.23,45.84-75.22,65.2-15.85,11.39-32.31,22-48.87,32.29-13.46,8.38-27,16.59-40.37,25.06-22.44,13.88-44.66,28.12-67.17,41.83a.06.06,0,0,1,0,.08c-8.91,5.48-17.91,10.92-27,16.2-98.43,57.8-196,117.3-290.54,181.28a10.86,10.86,0,0,0-1.08.78q-39,26.3-77.23,53.84c-8.37,6-16.46,12.36-24.35,19.06a429.17,429.17,0,0,0-38.76,37.89c-11.84,13.09-25.5,29.33-28.11,47.48-6.53,46.2,75.43,46.42,102.88,47-6.51,1.49-245.16,54.26-203.66-38.42a82.68,82.68,0,0,1,7.71-13.45c16.63-24.33,38.66-44.46,61.75-62.54q36.51-28.59,74.62-55.3c34.63-24.35,70.07-47.7,106-70.27l.06,0c51.06-32.26,103-63,154.84-93.37,54.82-32.06,110.81-65.13,164.35-99.74a12,12,0,0,1,1.16-.75c35.12-22.76,69.24-46.19,101.25-70.51.44-.32.91-.71,1.36-1a277.1,277.1,0,0,0,49.3-49.52c8.89-11.57,19-26.3,18.24-41.67-2-40.83-76.44-40.2-103.2-40.68C1717.71,1219.46,1956.34,1166.63,1914.86,1259.37Z" transform="translate(-725.69 -904)"/><path d="M841.78,1986a49.35,49.35,0,0,0-16.19-10.65,53.18,53.18,0,0,0-20.31-3.84H776.9a53.44,53.44,0,0,0-20.34,3.84,48.2,48.2,0,0,0-27,26.9,53.4,53.4,0,0,0-3.89,20.46v22.09a53.34,53.34,0,0,0,3.89,20.52,49.78,49.78,0,0,0,10.73,16.24,48.65,48.65,0,0,0,16.26,10.66A54.15,54.15,0,0,0,776.9,2096h28.38a53.92,53.92,0,0,0,20.3-3.79,48.09,48.09,0,0,0,26.91-26.91,54.07,54.07,0,0,0,3.84-20.51V2022.7a53.94,53.94,0,0,0-3.84-20.45A48.43,48.43,0,0,0,841.78,1986Zm-64.88,12.14h28.38a27.48,27.48,0,0,1,10.05,1.78,21.39,21.39,0,0,1,12.58,12.58,27.83,27.83,0,0,1,1.78,10.21v22.09a27.72,27.72,0,0,1-1.78,10.21,21.88,21.88,0,0,1-4.95,7.65,22.68,22.68,0,0,1-7.71,4.94,27.68,27.68,0,0,1-10.13,1.78H776.9a27.68,27.68,0,0,1-10.13-1.78,22.54,22.54,0,0,1-7.7-4.94,21.9,21.9,0,0,1-5-7.65,27.85,27.85,0,0,1-1.78-10.21V2022.7a28,28,0,0,1,1.78-10.21,22,22,0,0,1,4.95-7.64,22.68,22.68,0,0,1,7.71-4.94A27.68,27.68,0,0,1,776.9,1998.13Z" transform="translate(-725.69 -904)"/><path d="M977.79,1987.6A49.3,49.3,0,0,0,961.54,1977a53.41,53.41,0,0,0-20.34-3.84H884.61a13.63,13.63,0,0,0-5.29,1A12.79,12.79,0,0,0,875,1977a13.49,13.49,0,0,0-3.83,9.48V2081a13.6,13.6,0,0,0,1,5.27,12.93,12.93,0,0,0,7.09,7.09,13.63,13.63,0,0,0,5.29,1H941.2a53.41,53.41,0,0,0,20.34-3.84,48.45,48.45,0,0,0,27-26.85,53.6,53.6,0,0,0,3.88-20.52v-18.86a53.6,53.6,0,0,0-3.88-20.47A49.07,49.07,0,0,0,977.79,1987.6Zm-36.59,80.16H897.84v-68H941.2a27.4,27.4,0,0,1,10.13,1.79,22.51,22.51,0,0,1,7.71,4.93,21.87,21.87,0,0,1,5,7.68,27.9,27.9,0,0,1,1.79,10.18v18.86a27.76,27.76,0,0,1-1.79,10.21,21.88,21.88,0,0,1-5,7.65,22.59,22.59,0,0,1-7.71,4.94A27.68,27.68,0,0,1,941.2,2067.76Z" transform="translate(-725.69 -904)"/><path d="M1122.5,1977a13.39,13.39,0,0,0-9.5-3.89h-47.24a64.15,64.15,0,0,0-24.13,4.48,58.21,58.21,0,0,0-19.23,12.54,57.63,57.63,0,0,0-12.72,19.25,64.07,64.07,0,0,0-4.56,24.37v60.64h26.63V2066h68v28.38h26.64V1986.51a13.52,13.52,0,0,0-1-5.21A13.34,13.34,0,0,0,1122.5,1977Zm-67.24,24.33a40.43,40.43,0,0,1,6.68-1.32c1.94-.17,3.21-.27,3.82-.27h34v39.64h-68v-5.63a37.74,37.74,0,0,1,2.26-13.9,30.39,30.39,0,0,1,5.7-9.41,27.59,27.59,0,0,1,7.52-5.85A42.75,42.75,0,0,1,1055.26,2001.33Z" transform="translate(-725.69 -904)"/><path d="M1239.63,2050.31l-71.71-74.81a12.79,12.79,0,0,0-6.91-3.75,13.47,13.47,0,0,0-7.84.81,14.14,14.14,0,0,0-5.79,4.88,12.84,12.84,0,0,0-2.32,7.45v109.5h26.64v-77.2l71.7,74.87a12,12,0,0,0,4.57,3,14,14,0,0,0,4.9.9,13.44,13.44,0,0,0,5.2-1,13.25,13.25,0,0,0,4.26-2.82,13.67,13.67,0,0,0,2.85-4.21,13.23,13.23,0,0,0,1.09-5.33v-109.5h-26.64Z" transform="translate(-725.69 -904)"/><rect x="613.1" y="1069.11" width="26.63" height="121.28"/><path d="M1478.82,2050.31l-71.7-74.81a12.82,12.82,0,0,0-6.91-3.75,13.45,13.45,0,0,0-7.84.81,14.07,14.07,0,0,0-5.79,4.88,12.84,12.84,0,0,0-2.32,7.45v109.5h26.64v-77.2l71.69,74.87a12,12,0,0,0,4.58,3,14,14,0,0,0,4.89.9,13.45,13.45,0,0,0,5.21-1,13.1,13.1,0,0,0,4.25-2.82,13.5,13.5,0,0,0,2.85-4.21,13.07,13.07,0,0,0,1.09-5.33v-109.5h-26.64Z" transform="translate(-725.69 -904)"/><path d="M1532.25,1974.14A12.74,12.74,0,0,0,1528,1977a13.6,13.6,0,0,0-3.83,9.48v107.88h26.64v-94.65h84v-26.63h-97.24A13.58,13.58,0,0,0,1532.25,1974.14Z" transform="translate(-725.69 -904)"/><rect x="833.08" y="1116.36" width="66.64" height="26.8"/><path d="M1757.76,1986a49.4,49.4,0,0,0-16.2-10.65,53.18,53.18,0,0,0-20.31-3.84h-28.37a53.41,53.41,0,0,0-20.34,3.84,48.17,48.17,0,0,0-27,26.9,53.59,53.59,0,0,0-3.88,20.46v22.09a53.53,53.53,0,0,0,3.88,20.52,49.64,49.64,0,0,0,10.74,16.24,48.65,48.65,0,0,0,16.26,10.66,54.11,54.11,0,0,0,20.33,3.79h28.37a53.88,53.88,0,0,0,20.3-3.79,48,48,0,0,0,26.91-26.91,53.88,53.88,0,0,0,3.84-20.51V2022.7a53.94,53.94,0,0,0-3.84-20.45A48.55,48.55,0,0,0,1757.76,1986Zm-64.88,12.14h28.37a27.44,27.44,0,0,1,10,1.78,21.44,21.44,0,0,1,12.59,12.58,28,28,0,0,1,1.78,10.21v22.09a27.93,27.93,0,0,1-1.78,10.21,22,22,0,0,1-5,7.65,22.49,22.49,0,0,1-7.71,4.94,27.68,27.68,0,0,1-10.13,1.78h-28.21a27.68,27.68,0,0,1-10.13-1.78,22.49,22.49,0,0,1-7.71-4.94,22,22,0,0,1-5-7.65,27.85,27.85,0,0,1-1.77-10.21V2022.7a28,28,0,0,1,1.77-10.21,22,22,0,0,1,5-7.64,22.59,22.59,0,0,1,7.71-4.94A27.68,27.68,0,0,1,1692.88,1998.13Z" transform="translate(-725.69 -904)"/><polygon points="1051.09 1095.74 1097.37 1095.74 1097.37 1190.39 1124 1190.39 1124 1095.74 1170.2 1095.74 1170.2 1069.11 1051.09 1069.11 1051.09 1095.74"/><rect x="1214.09" y="1116.36" width="66.55" height="26.8"/><path d="M1913.24,1974.14A12.79,12.79,0,0,0,1909,1977a13.6,13.6,0,0,0-3.83,9.48v75.62a32.22,32.22,0,0,0,3.27,15.07,31.17,31.17,0,0,0,8.08,10,30.85,30.85,0,0,0,10.51,5.54,36.41,36.41,0,0,0,10.32,1.65h78.46v-26.63h-78.3c-2,0-3.47-.45-4.36-1.36a5.84,5.84,0,0,1-1.34-4.27v-62.39h84v-26.63h-97.24A13.66,13.66,0,0,0,1913.24,1974.14Z" transform="translate(-725.69 -904)"/><path d="M2049.8,1974.62a30.44,30.44,0,0,0-8.31,4.05,28.85,28.85,0,0,0-6.21,5.85,32.67,32.67,0,0,0-4.14,6.84,35.05,35.05,0,0,0-2.33,7.19,34.61,34.61,0,0,0-.74,6.82v56.76a35.14,35.14,0,0,0,1.5,10.57,30.3,30.3,0,0,0,4.06,8.35,28.1,28.1,0,0,0,5.87,6.18,33.24,33.24,0,0,0,6.82,4.09,34.37,34.37,0,0,0,7.19,2.32,33.84,33.84,0,0,0,6.82.75h78.46v-26.63h-78.46a4.94,4.94,0,0,1-5.63-5.63v-56.59c0-2.07.45-3.56,1.35-4.45a5.81,5.81,0,0,1,4.28-1.35h78.46v-26.63h-78.46A34.46,34.46,0,0,0,2049.8,1974.62Z" transform="translate(-725.69 -904)"/><polygon points="1521.98 1069.11 1521.98 1116.36 1454.05 1116.36 1454.05 1069.11 1427.41 1069.11 1427.41 1190.39 1454.05 1190.39 1454.05 1143.15 1521.98 1143.15 1521.98 1190.39 1548.61 1190.39 1548.61 1069.11 1521.98 1069.11"/></g></g></svg>