<svg width="1549" height="1192" viewBox="0 0 1549 1192" fill="none" xmlns="http://www.w3.org/2000/svg">
<g clip-path="url(#clip0_1_118)">
<path d="M911.79 510.65C911.15 511.11 910.49 511.52 909.79 511.93C883.719 482.155 848.903 461.384 810.318 452.583C771.733 443.783 731.353 447.404 694.95 462.93C602.61 502.31 558.08 607.03 592.35 700.2C592.69 701.14 593.1 702.12 593.44 703.07C557.51 725.73 521.74 749.22 486.72 773.86C485.44 771.32 484.22 768.75 483.03 766.11L482.82 765.62C481.82 763.3 480.74 761.04 479.74 758.7C478.74 756.36 477.82 754.05 476.88 751.7L476.67 751.21C427.76 625.51 487.12 482.89 612.06 429.61C663.84 407.413 721.595 403.334 775.98 418.034C830.366 432.733 878.202 465.351 911.75 510.61L911.79 510.65Z" fill="#864AFF"/>
<path d="M1060.55 519.87C1123.21 677.65 1048.84 857.48 891.8 924.45C758.93 981.12 608.74 939.13 522.99 831.26C530.87 824.593 538.87 818.303 546.99 812.39C572.51 793.98 598.25 776.06 623.99 758.67C657.402 804.52 705.377 837.682 760.076 852.736C814.775 867.791 872.963 863.847 925.13 841.55C1050.06 788.27 1109.46 645.57 1060.55 519.87Z" fill="#864AFF"/>
<path d="M1012.65 440.43C980.73 464.66 946.98 487.92 911.79 510.65C878.242 465.391 830.406 432.773 776.02 418.073C721.635 403.374 663.88 407.453 612.1 429.65C487.16 482.93 427.8 625.55 476.71 751.25C414.07 593.53 488.39 413.73 645.42 346.75C778.14 290.15 928.1 331.92 1013.95 439.42C1013.51 439.74 1013.09 440.11 1012.65 440.43Z" fill="#F7931E"/>
<path d="M1057.48 512.37C1058.48 514.71 1059.4 517.02 1060.34 519.37L1060.55 519.86C1109.46 645.56 1050.06 788.26 925.13 841.54C872.963 863.837 814.775 867.78 760.076 852.726C705.377 837.672 657.402 804.51 623.99 758.66C624.6 758.27 625.23 757.8 625.84 757.42C651.799 787.829 686.789 809.156 725.713 818.293C764.637 827.431 805.462 823.901 842.24 808.22C936.15 768.16 980.56 660.73 943.1 566.42C942.53 564.92 941.9 563.42 941.25 561.93L941.04 561.44C954.7 553.05 968.25 544.56 981.53 536.2C990.82 530.37 1000.05 524.57 1009.41 518.78C1017.41 513.78 1025.41 508.78 1033.41 503.85C1038.61 500.67 1043.79 497.43 1049.02 494.17C1050.79 497.73 1052.51 501.3 1054.2 504.95L1054.41 505.44C1055.45 507.77 1056.48 510 1057.48 512.37Z" fill="#F7931E"/>
<path d="M843.2 193.37H767.62V268.95H843.2V193.37Z" fill="#864AFF"/>
<path d="M923.2 146.76H874.07V195.89H923.2V146.76Z" fill="#864AFF"/>
<path d="M702.75 151.8H639.76V214.79H702.75V151.8Z" fill="#864AFF"/>
<path d="M818.64 70.54H741.8V147.38H818.64V70.54Z" fill="#864AFF"/>
<path d="M739.28 0H702.75V36.53H739.28V0Z" fill="#864AFF"/>
<path d="M1189.17 355.37C1185.76 362.63 1181.47 369.447 1176.41 375.67C1173.57 379.26 1170.65 382.82 1167.61 386.24C1145.71 411.34 1119.38 432.08 1092.39 451.44C1076.54 462.83 1060.08 473.44 1043.52 483.73C1030.06 492.11 1016.52 500.32 1003.15 508.79C980.71 522.67 958.49 536.91 935.98 550.62C935.99 550.631 935.995 550.645 935.995 550.66C935.995 550.675 935.99 550.689 935.98 550.7C927.07 556.18 918.07 561.62 908.98 566.9C810.55 624.7 712.98 684.2 618.44 748.18C618.064 748.417 617.704 748.678 617.36 748.96C591.36 766.493 565.617 784.44 540.13 802.8C531.76 808.8 523.67 815.16 515.78 821.86C502.075 833.66 489.129 846.316 477.02 859.75C465.18 872.84 451.52 889.08 448.91 907.23C442.38 953.43 524.34 953.65 551.79 954.23C545.28 955.72 306.63 1008.49 348.13 915.81C350.273 911.095 352.855 906.592 355.84 902.36C372.47 878.03 394.5 857.9 417.59 839.82C441.93 820.76 466.803 802.326 492.21 784.52C526.84 760.17 562.28 736.82 598.21 714.25H598.27C649.33 681.99 701.27 651.25 753.11 620.88C807.93 588.82 863.92 555.75 917.46 521.14C917.832 520.868 918.219 520.617 918.62 520.39C953.74 497.63 987.86 474.2 1019.87 449.88C1020.31 449.56 1020.78 449.17 1021.23 448.88C1039.69 434.52 1056.25 417.881 1070.53 399.36C1079.42 387.79 1089.53 373.06 1088.77 357.69C1086.77 316.86 1012.33 317.49 985.57 317.01C992.02 315.46 1230.65 262.63 1189.17 355.37Z" fill="#FFCC00"/>
<path style="mix-blend-mode:overlay" d="M911.79 510.65C911.15 511.11 910.49 511.52 909.79 511.93C883.719 482.155 848.903 461.384 810.318 452.583C771.733 443.783 731.353 447.404 694.95 462.93C602.61 502.31 558.08 607.03 592.35 700.2C592.69 701.14 593.1 702.12 593.44 703.07C557.51 725.73 521.74 749.22 486.72 773.86C485.44 771.32 484.22 768.75 483.03 766.11L482.82 765.62C481.82 763.3 480.74 761.04 479.74 758.7C478.74 756.36 477.82 754.05 476.88 751.7L476.67 751.21C427.76 625.51 487.12 482.89 612.06 429.61C663.84 407.413 721.595 403.334 775.98 418.034C830.366 432.733 878.202 465.351 911.75 510.61L911.79 510.65Z" fill="url(#paint0_linear_1_118)"/>
<path style="mix-blend-mode:overlay" d="M1060.55 519.87C1123.21 677.65 1048.84 857.48 891.8 924.45C758.93 981.12 608.74 939.13 522.99 831.26C530.87 824.593 538.87 818.303 546.99 812.39C572.51 793.98 598.25 776.06 623.99 758.67C657.402 804.52 705.377 837.682 760.076 852.736C814.775 867.791 872.963 863.847 925.13 841.55C1050.06 788.27 1109.46 645.57 1060.55 519.87Z" fill="url(#paint1_linear_1_118)"/>
<path style="mix-blend-mode:overlay" d="M1012.65 440.43C980.73 464.66 946.98 487.92 911.79 510.65C878.242 465.391 830.406 432.773 776.02 418.073C721.635 403.374 663.88 407.453 612.1 429.65C487.16 482.93 427.8 625.55 476.71 751.25C414.07 593.53 488.39 413.73 645.42 346.75C778.14 290.15 928.1 331.92 1013.95 439.42C1013.51 439.74 1013.09 440.11 1012.65 440.43Z" fill="url(#paint2_linear_1_118)"/>
<path style="mix-blend-mode:overlay" d="M1057.48 512.37C1058.48 514.71 1059.4 517.02 1060.34 519.37L1060.55 519.86C1109.46 645.56 1050.06 788.26 925.13 841.54C872.963 863.837 814.775 867.78 760.076 852.726C705.377 837.672 657.402 804.51 623.99 758.66C624.6 758.27 625.23 757.8 625.84 757.42C651.799 787.829 686.789 809.156 725.713 818.293C764.637 827.431 805.462 823.901 842.24 808.22C936.15 768.16 980.56 660.73 943.1 566.42C942.53 564.92 941.9 563.42 941.25 561.93L941.04 561.44C954.7 553.05 968.25 544.56 981.53 536.2C990.82 530.37 1000.05 524.57 1009.41 518.78C1017.41 513.78 1025.41 508.78 1033.41 503.85C1038.61 500.67 1043.79 497.43 1049.02 494.17C1050.79 497.73 1052.51 501.3 1054.2 504.95L1054.41 505.44C1055.45 507.77 1056.48 510 1057.48 512.37Z" fill="url(#paint3_linear_1_118)"/>
<g style="mix-blend-mode:overlay">
<path style="mix-blend-mode:overlay" d="M843.2 193.37H767.62V268.95H843.2V193.37Z" fill="url(#paint4_linear_1_118)"/>
<path style="mix-blend-mode:overlay" d="M923.2 146.76H874.07V195.89H923.2V146.76Z" fill="url(#paint5_linear_1_118)"/>
<path style="mix-blend-mode:overlay" d="M702.75 151.8H639.76V214.79H702.75V151.8Z" fill="url(#paint6_linear_1_118)"/>
<path style="mix-blend-mode:overlay" d="M818.64 70.54H741.8V147.38H818.64V70.54Z" fill="url(#paint7_linear_1_118)"/>
<path style="mix-blend-mode:overlay" d="M739.28 0H702.75V36.53H739.28V0Z" fill="url(#paint8_linear_1_118)"/>
</g>
<path style="mix-blend-mode:overlay" d="M1189.17 355.37C1185.76 362.63 1181.47 369.447 1176.41 375.67C1173.57 379.26 1170.65 382.82 1167.61 386.24C1145.71 411.34 1119.38 432.08 1092.39 451.44C1076.54 462.83 1060.08 473.44 1043.52 483.73C1030.06 492.11 1016.52 500.32 1003.15 508.79C980.71 522.67 958.49 536.91 935.98 550.62C935.99 550.631 935.995 550.645 935.995 550.66C935.995 550.675 935.99 550.689 935.98 550.7C927.07 556.18 918.07 561.62 908.98 566.9C810.55 624.7 712.98 684.2 618.44 748.18C618.064 748.417 617.704 748.678 617.36 748.96C591.36 766.493 565.617 784.44 540.13 802.8C531.76 808.8 523.67 815.16 515.78 821.86C502.075 833.66 489.129 846.316 477.02 859.75C465.18 872.84 451.52 889.08 448.91 907.23C442.38 953.43 524.34 953.65 551.79 954.23C545.28 955.72 306.63 1008.49 348.13 915.81C350.273 911.095 352.855 906.592 355.84 902.36C372.47 878.03 394.5 857.9 417.59 839.82C441.93 820.76 466.803 802.326 492.21 784.52C526.84 760.17 562.28 736.82 598.21 714.25H598.27C649.33 681.99 701.27 651.25 753.11 620.88C807.93 588.82 863.92 555.75 917.46 521.14C917.832 520.868 918.219 520.617 918.62 520.39C953.74 497.63 987.86 474.2 1019.87 449.88C1020.31 449.56 1020.78 449.17 1021.23 448.88C1039.69 434.52 1056.25 417.881 1070.53 399.36C1079.42 387.79 1089.53 373.06 1088.77 357.69C1086.77 316.86 1012.33 317.49 985.57 317.01C992.02 315.46 1230.65 262.63 1189.17 355.37Z" fill="url(#paint9_linear_1_118)"/>
<path d="M116.09 1082C111.45 1077.41 105.948 1073.79 99.9001 1071.35C93.4464 1068.75 86.5461 1067.45 79.5901 1067.51H51.2101C44.2446 1067.45 37.335 1068.76 30.8701 1071.35C24.7774 1073.76 19.2407 1077.39 14.5983 1082.02C9.95601 1086.64 6.30554 1092.17 3.87006 1098.25C1.24314 1104.75 -0.0786735 1111.7 -0.0199507 1118.71V1140.8C-0.0881491 1147.83 1.23387 1154.8 3.87006 1161.32C6.34323 1167.39 9.98957 1172.91 14.6 1177.56C19.2476 1182.17 24.778 1185.8 30.8601 1188.22C37.3372 1190.78 44.2468 1192.06 51.2101 1192H79.5901C86.5377 1192.06 93.4308 1190.77 99.8901 1188.21C105.97 1185.79 111.493 1182.16 116.12 1177.53C120.747 1172.9 124.381 1167.38 126.8 1161.3C129.4 1154.78 130.704 1147.81 130.64 1140.79V1118.7C130.699 1111.7 129.395 1104.75 126.8 1098.25C124.366 1092.16 120.723 1086.64 116.09 1082V1082ZM51.2101 1094.14H79.5901C83.0219 1094.1 86.4306 1094.7 89.6401 1095.92C92.5169 1096.99 95.1293 1098.67 97.3 1100.84C99.4707 1103.01 101.149 1105.62 102.22 1108.5C103.447 1111.76 104.051 1115.23 104 1118.71V1140.8C104.054 1144.28 103.45 1147.75 102.22 1151.01C101.125 1153.88 99.4387 1156.49 97.2701 1158.66C95.0627 1160.81 92.4392 1162.49 89.5601 1163.6C86.3243 1164.82 82.8883 1165.42 79.4301 1165.38H51.2101C47.7519 1165.42 44.3159 1164.82 41.0801 1163.6C38.2027 1162.5 35.5821 1160.82 33.3801 1158.66C31.194 1156.49 29.4902 1153.88 28.3801 1151.01C27.1531 1147.75 26.5493 1144.28 26.6 1140.8V1118.7C26.5529 1115.22 27.1566 1111.75 28.3801 1108.49C29.4794 1105.63 31.1655 1103.02 33.3301 1100.85C35.5375 1098.7 38.1609 1097.02 41.04 1095.91C44.2884 1094.68 47.7385 1094.08 51.2101 1094.13V1094.14Z" fill="white"/>
<path d="M252.1 1083.6C247.439 1079.03 241.915 1075.42 235.85 1073C229.385 1070.41 222.476 1069.1 215.51 1069.16H158.92C157.108 1069.14 155.309 1069.48 153.63 1070.16C152.012 1070.8 150.542 1071.77 149.31 1073C146.839 1075.54 145.463 1078.94 145.48 1082.48V1177C145.46 1178.81 145.8 1180.6 146.48 1182.27C147.13 1183.86 148.092 1185.31 149.31 1186.53C150.527 1187.75 151.976 1188.71 153.57 1189.36C155.249 1190.04 157.048 1190.38 158.86 1190.36H215.51C222.476 1190.42 229.385 1189.11 235.85 1186.52C241.931 1184.1 247.458 1180.47 252.098 1175.86C256.739 1171.24 260.396 1165.74 262.85 1159.67C265.476 1153.15 266.795 1146.18 266.73 1139.15V1120.29C266.788 1113.28 265.47 1106.32 262.85 1099.82C260.385 1093.75 256.73 1088.23 252.1 1083.6V1083.6ZM215.51 1163.76H172.15V1095.76H215.51C218.969 1095.71 222.407 1096.32 225.64 1097.55C228.521 1098.65 231.145 1100.33 233.35 1102.48C235.54 1104.66 237.244 1107.28 238.35 1110.16C239.576 1113.41 240.183 1116.86 240.14 1120.34V1139.2C240.19 1142.69 239.582 1146.15 238.35 1149.41C237.24 1152.28 235.537 1154.89 233.35 1157.06C231.144 1159.22 228.52 1160.9 225.64 1162C222.403 1163.21 218.967 1163.81 215.51 1163.76V1163.76Z" fill="white"/>
<path d="M396.81 1073C395.56 1071.76 394.078 1070.78 392.448 1070.11C390.817 1069.44 389.072 1069.1 387.31 1069.11H340.07C331.813 1069.04 323.62 1070.56 315.94 1073.59C308.761 1076.45 302.224 1080.71 296.71 1086.13C291.216 1091.62 286.889 1098.17 283.99 1105.38C280.898 1113.13 279.349 1121.41 279.43 1129.75V1190.39H306.06V1162H374.06V1190.38H400.7V1082.51C400.714 1080.72 400.374 1078.95 399.7 1077.3C399.027 1075.69 398.045 1074.23 396.81 1073V1073ZM329.57 1097.33C331.756 1096.7 333.99 1096.26 336.25 1096.01C338.19 1095.84 339.46 1095.74 340.07 1095.74H374.07V1135.38H306.07V1129.75C305.945 1125.02 306.711 1120.3 308.33 1115.85C309.642 1112.39 311.573 1109.2 314.03 1106.44C316.178 1104.07 318.723 1102.09 321.55 1100.59C324.106 1099.23 326.793 1098.14 329.57 1097.33V1097.33Z" fill="white"/>
<path d="M513.94 1146.31L442.23 1071.5C440.378 1069.56 437.96 1068.24 435.32 1067.75C432.684 1067.23 429.954 1067.51 427.48 1068.56C425.142 1069.63 423.141 1071.32 421.69 1073.44C420.163 1075.62 419.352 1078.23 419.37 1080.89V1190.39H446.01V1113.19L517.71 1188.06C518.982 1189.4 520.546 1190.43 522.28 1191.06C523.846 1191.65 525.506 1191.96 527.18 1191.96C528.963 1191.97 530.73 1191.63 532.38 1190.96C533.97 1190.31 535.416 1189.35 536.64 1188.14C537.845 1186.93 538.812 1185.5 539.49 1183.93C540.219 1182.25 540.59 1180.43 540.58 1178.6V1069.1H513.94V1146.31Z" fill="white"/>
<path d="M639.73 1069.11H613.1V1190.39H639.73V1069.11Z" fill="white"/>
<path d="M753.13 1146.31L681.43 1071.5C679.576 1069.56 677.159 1068.25 674.52 1067.75C671.884 1067.23 669.154 1067.51 666.68 1068.56C664.34 1069.63 662.338 1071.31 660.89 1073.44C659.363 1075.62 658.552 1078.23 658.57 1080.89V1190.39H685.21V1113.19L756.9 1188.06C758.175 1189.4 759.743 1190.43 761.48 1191.06C763.043 1191.65 764.7 1191.95 766.37 1191.96C768.156 1191.98 769.927 1191.64 771.58 1190.96C773.168 1190.31 774.612 1189.35 775.83 1188.14C777.038 1186.93 778.005 1185.5 778.68 1183.93C779.413 1182.25 779.785 1180.43 779.77 1178.6V1069.1H753.13V1146.31Z" fill="white"/>
<path d="M806.56 1070.14C804.964 1070.8 803.518 1071.77 802.31 1073C799.849 1075.54 798.475 1078.94 798.48 1082.48V1190.36H825.12V1095.71H909.12V1069.08H811.88C810.053 1069.07 808.244 1069.43 806.56 1070.14V1070.14Z" fill="white"/>
<path d="M899.72 1116.36H833.08V1143.16H899.72V1116.36Z" fill="white"/>
<path d="M1032.07 1082C1027.43 1077.41 1021.92 1073.79 1015.87 1071.35C1009.42 1068.75 1002.52 1067.45 995.56 1067.51H967.19C960.224 1067.45 953.315 1068.76 946.85 1071.35C940.756 1073.76 935.219 1077.39 930.576 1082.02C925.934 1086.64 922.284 1092.17 919.85 1098.25C917.231 1104.75 915.913 1111.7 915.97 1118.71V1140.8C915.904 1147.83 917.222 1154.8 919.85 1161.32C922.323 1167.39 925.973 1172.91 930.59 1177.56C935.238 1182.17 940.768 1185.8 946.85 1188.22C953.32 1190.78 960.223 1192.07 967.18 1192.01H995.55C1002.5 1192.07 1009.39 1190.78 1015.85 1188.22C1021.93 1185.81 1027.46 1182.17 1032.09 1177.55C1036.71 1172.92 1040.35 1167.39 1042.76 1161.31C1045.36 1154.79 1046.67 1147.82 1046.6 1140.8V1118.7C1046.66 1111.7 1045.36 1104.75 1042.76 1098.25C1040.33 1092.17 1036.69 1086.64 1032.07 1082V1082ZM967.19 1094.14H995.56C998.975 1094.11 1002.37 1094.71 1005.56 1095.92C1008.44 1096.99 1011.05 1098.67 1013.22 1100.84C1015.39 1103.01 1017.07 1105.62 1018.15 1108.5C1019.37 1111.76 1019.98 1115.23 1019.93 1118.71V1140.8C1019.98 1144.28 1019.38 1147.75 1018.15 1151.01C1017.04 1153.88 1015.33 1156.49 1013.15 1158.66C1010.95 1160.82 1008.32 1162.5 1005.44 1163.6C1002.2 1164.82 998.768 1165.42 995.31 1165.38H967.1C963.642 1165.42 960.206 1164.82 956.97 1163.6C954.088 1162.5 951.464 1160.82 949.26 1158.66C947.076 1156.49 945.373 1153.88 944.26 1151.01C943.036 1147.75 942.436 1144.28 942.49 1140.8V1118.7C942.44 1115.22 943.04 1111.75 944.26 1108.49C945.374 1105.62 947.077 1103.02 949.26 1100.85C951.466 1098.69 954.09 1097.01 956.97 1095.91C960.234 1094.68 963.702 1094.07 967.19 1094.13V1094.14Z" fill="white"/>
<path d="M1051.09 1095.74H1097.37V1190.39H1124V1095.74H1170.2V1069.11H1051.09V1095.74Z" fill="white"/>
<path d="M1280.64 1116.36H1214.09V1143.16H1280.64V1116.36Z" fill="white"/>
<path d="M1187.55 1070.14C1185.96 1070.8 1184.52 1071.77 1183.31 1073C1180.85 1075.54 1179.48 1078.94 1179.48 1082.48V1158.1C1179.33 1163.31 1180.46 1168.49 1182.75 1173.17C1184.72 1177.03 1187.47 1180.43 1190.83 1183.17C1193.94 1185.68 1197.51 1187.56 1201.34 1188.71C1204.68 1189.75 1208.16 1190.31 1211.66 1190.36H1290.12V1163.73H1211.82C1209.82 1163.73 1208.35 1163.28 1207.46 1162.37C1206.97 1161.78 1206.59 1161.1 1206.36 1160.37C1206.13 1159.64 1206.05 1158.86 1206.12 1158.1V1095.71H1290.12V1069.08H1192.88C1191.05 1069.07 1189.24 1069.43 1187.55 1070.14V1070.14Z" fill="white"/>
<path d="M1324.11 1070.62C1321.15 1071.54 1318.35 1072.9 1315.8 1074.67C1313.45 1076.3 1311.36 1078.27 1309.59 1080.52C1307.94 1082.62 1306.54 1084.92 1305.45 1087.36C1304.42 1089.67 1303.64 1092.08 1303.12 1094.55C1302.65 1096.79 1302.4 1099.08 1302.38 1101.37V1158.13C1302.34 1161.71 1302.84 1165.27 1303.88 1168.7C1304.8 1171.68 1306.17 1174.49 1307.94 1177.05C1309.57 1179.4 1311.55 1181.48 1313.81 1183.23C1315.91 1184.86 1318.2 1186.23 1320.63 1187.32C1322.93 1188.36 1325.35 1189.13 1327.82 1189.64C1330.06 1190.12 1332.35 1190.37 1334.64 1190.39H1413.1V1163.76H1334.64C1333.87 1163.88 1333.09 1163.81 1332.35 1163.57C1331.62 1163.33 1330.95 1162.92 1330.4 1162.37C1329.85 1161.82 1329.44 1161.15 1329.2 1160.42C1328.96 1159.68 1328.89 1158.9 1329.01 1158.13V1101.54C1329.01 1099.47 1329.46 1097.98 1330.36 1097.09C1330.95 1096.59 1331.63 1096.22 1332.36 1095.99C1333.1 1095.75 1333.87 1095.67 1334.64 1095.74H1413.1V1069.11H1334.64C1331.07 1069.07 1327.52 1069.57 1324.11 1070.62V1070.62Z" fill="white"/>
<path d="M1521.98 1069.11V1116.36H1454.05V1069.11H1427.41V1190.39H1454.05V1143.15H1521.98V1190.39H1548.61V1069.11H1521.98Z" fill="white"/>
</g>
<defs>
<linearGradient id="paint0_linear_1_118" x1="433.907" y1="650.995" x2="888.952" y2="456.902" gradientUnits="userSpaceOnUse">
<stop stop-color="#4571D1"/>
<stop offset="1" stop-color="#6CE1FE"/>
</linearGradient>
<linearGradient id="paint1_linear_1_118" x1="572988" y1="932781" x2="918140" y2="932781" gradientUnits="userSpaceOnUse">
<stop stop-color="#4571D1"/>
<stop offset="1" stop-color="#6CE1FE"/>
</linearGradient>
<linearGradient id="paint2_linear_1_118" x1="566334" y1="793996" x2="911225" y2="793996" gradientUnits="userSpaceOnUse">
<stop stop-color="#4571D1"/>
<stop offset="1" stop-color="#6CE1FE"/>
</linearGradient>
<linearGradient id="paint3_linear_1_118" x1="519649" y1="780874" x2="744371" y2="780874" gradientUnits="userSpaceOnUse">
<stop stop-color="#4571D1"/>
<stop offset="1" stop-color="#6CE1FE"/>
</linearGradient>
<linearGradient id="paint4_linear_1_118" x1="58784.4" y1="17664.4" x2="64497.4" y2="17664.4" gradientUnits="userSpaceOnUse">
<stop stop-color="#4571D1"/>
<stop offset="1" stop-color="#6CE1FE"/>
</linearGradient>
<linearGradient id="paint5_linear_1_118" x1="43817.1" y1="8563.71" x2="46230.9" y2="8563.71" gradientUnits="userSpaceOnUse">
<stop stop-color="#4571D1"/>
<stop offset="1" stop-color="#6CE1FE"/>
</linearGradient>
<linearGradient id="paint6_linear_1_118" x1="40938.2" y1="11697.2" x2="44906" y2="11697.2" gradientUnits="userSpaceOnUse">
<stop stop-color="#4571D1"/>
<stop offset="1" stop-color="#6CE1FE"/>
</linearGradient>
<linearGradient id="paint7_linear_1_118" x1="57741.7" y1="8443.8" x2="63646.1" y2="8443.8" gradientUnits="userSpaceOnUse">
<stop stop-color="#4571D1"/>
<stop offset="1" stop-color="#6CE1FE"/>
</linearGradient>
<linearGradient id="paint8_linear_1_118" x1="26374.2" y1="667.403" x2="27708.7" y2="667.403" gradientUnits="userSpaceOnUse">
<stop stop-color="#4571D1"/>
<stop offset="1" stop-color="#6CE1FE"/>
</linearGradient>
<linearGradient id="paint9_linear_1_118" x1="693146" y1="1.34535e+06" x2="1.56271e+06" y2="1.34535e+06" gradientUnits="userSpaceOnUse">
<stop stop-color="#4571D1"/>
<stop offset="1" stop-color="#6CE1FE"/>
</linearGradient>
<clipPath id="clip0_1_118">
<rect width="1548.61" height="1192" fill="white"/>
</clipPath>
</defs>
</svg>
